<svg xmlns="http://www.w3.org/2000/svg" width="36" height="36" viewBox="0 0 36 36" fill="none">
  <path fill-rule="evenodd" clip-rule="evenodd" d="M30 10.5V13.5C32.49 13.5 34.5 15.51 34.5 18C34.5 20.49 32.49 22.5 30 22.5V28.5C30 30.15 28.65 31.5 27 31.5H9C7.35 31.5 6 30.15 6 28.5V22.5C3.51 22.5 1.5 20.49 1.5 18C1.5 15.51 3.51 13.5 6 13.5V10.5C6 8.85 7.35 7.5 9 7.5H13.5C13.5 5.01 15.51 3 18 3C20.49 3 22.5 5.01 22.5 7.5H27C28.65 7.5 30 8.85 30 10.5ZM13.5 15C12.255 15 11.25 16.005 11.25 17.25C11.25 18.495 12.255 19.5 13.5 19.5C14.745 19.5 15.75 18.495 15.75 17.25C15.75 16.005 14.745 15 13.5 15ZM12 25.5V22.5H24V25.5H12ZM20.25 17.25C20.25 18.495 21.255 19.5 22.5 19.5C23.745 19.5 24.75 18.495 24.75 17.25C24.75 16.005 23.745 15 22.5 15C21.255 15 20.25 16.005 20.25 17.25Z" fill="white"/>
</svg>