<svg xmlns="http://www.w3.org/2000/svg" width="36" height="36" viewBox="0 0 36 36" fill="none">
  <path fill-rule="evenodd" clip-rule="evenodd" d="M18 3C9.72 3 3 9.72 3 18C3 26.28 9.72 33 18 33C26.28 33 33 26.28 33 18C33 9.72 26.28 3 18 3ZM11.625 19.5C11.625 18.465 12.465 17.625 13.5 17.625C14.535 17.625 15.375 18.465 15.375 19.5C15.375 20.535 14.535 21.375 13.5 21.375C12.465 21.375 11.625 20.535 11.625 19.5ZM20.625 19.5C20.625 18.465 21.465 17.625 22.5 17.625C23.535 17.625 24.375 18.465 24.375 19.5C24.375 20.535 23.535 21.375 22.5 21.375C21.465 21.375 20.625 20.535 20.625 19.5ZM6 18C6 24.615 11.385 30 18 30C24.615 30 30 24.615 30 18C30 16.815 29.82 15.675 29.505 14.61C28.425 14.865 27.3 15 26.13 15C21.075 15 16.605 12.495 13.89 8.655C12.42 12.24 9.615 15.135 6.075 16.71C6.03 17.13 6 17.565 6 18Z" fill="white"/>
</svg>